HIERARCHY
ROOT hip
{
  OFFSET 0 0 0
  CHANNELS 6 Xposition Yposition Zposition Zrotation Yrotation Xrotation
  JOINT abdomen
  {
    OFFSET 0 20.6881 -0.73152
    CHANNELS 3 Zrotation Xrotation Yrotation
    JOINT chest
    {
      OFFSET 0 11.7043 -0.48768
      CHANNELS 3 Zrotation Xrotation Yrotation
      JOINT neck
      {
        OFFSET 0 22.1894 -2.19456
        CHANNELS 3 Zrotation Xrotation Yrotation
        JOINT head
        {
          OFFSET -0.24384 7.07133 1.2192
          CHANNELS 3 Zrotation Xrotation Yrotation
          JOINT leftEye
          {
            OFFSET 4.14528 8.04674 8.04672
            CHANNELS 3 Zrotation Xrotation Yrotation
            End Site
            {
              OFFSET 1 0 0
            }
          }
          JOINT rightEye
          {
            OFFSET -3.6576 8.04674 8.04672
            CHANNELS 3 Zrotation Xrotation Yrotation
            End Site
            {
              OFFSET 1 0 0
            }
          }
        }
      }
      JOINT rCollar
      {
        OFFSET -2.68224 19.2634 -4.8768
        CHANNELS 3 Zrotation Xrotation Yrotation
        JOINT rShldr
        {
          OFFSET -8.77824 -1.95073 1.46304
          CHANNELS 3 Zrotation Xrotation Yrotation
          JOINT rForeArm
          {
            OFFSET -28.1742 -1.7115 0.48768
            CHANNELS 3 Zrotation Xrotation Yrotation
            JOINT rHand
            {
              OFFSET -22.5879 0.773209 7.07136
              CHANNELS 3 Zrotation Xrotation Yrotation
              JOINT rThumb1
              {
                OFFSET -1.2192 -0.487915 3.41376
                CHANNELS 3 Zrotation Xrotation Yrotation
                JOINT rThumb2
                {
                  OFFSET -3.37035 -0.52449 3.41376
                  CHANNELS 3 Zrotation Xrotation Yrotation
                  End Site
                  {
                    OFFSET -1.78271 -1.18214 1.43049
                  }
                }
              }
              JOINT rIndex1
              {
                OFFSET -7.75947 0.938293 5.60832
                CHANNELS 3 Zrotation Xrotation Yrotation
                JOINT rIndex2
                {
                  OFFSET -2.54057 -0.884171 1.56538
                  CHANNELS 3 Zrotation Xrotation Yrotation
                  End Site
                  {
                    OFFSET -1.62519 -0.234802 1.16502
                  }
                }
              }
              JOINT rMid1
              {
                OFFSET -8.24714 1.18213 3.41376
                CHANNELS 3 Zrotation Xrotation Yrotation
                JOINT rMid2
                {
                  OFFSET -3.10165 -0.590103 1.0647
                  CHANNELS 3 Zrotation Xrotation Yrotation
                  End Site
                  {
                    OFFSET -2.48547 -0.328903 0.83742
                  }
                }
              }
              JOINT rRing1
              {
                OFFSET -8.82822 0.546677 1.51678
                CHANNELS 3 Zrotation Xrotation Yrotation
                JOINT rRing2
                {
                  OFFSET -2.60934 -0.819778 -0.0198488
                  CHANNELS 3 Zrotation Xrotation Yrotation
                  End Site
                  {
                    OFFSET -2.33842 -0.294052 0.168128
                  }
                }
              }
              JOINT rPinky1
              {
                OFFSET -8.27202 -0.0477905 -0.4584
                CHANNELS 3 Zrotation Xrotation Yrotation
                JOINT rPinky2
                {
                  OFFSET -1.82734 -0.647385 -0.700984
                  CHANNELS 3 Zrotation Xrotation Yrotation
                  End Site
                  {
                    OFFSET -1.69225 -0.51767 -0.607171
                  }
                }
              }
            }
          }
        }
      }
      JOINT lCollar
      {
        OFFSET 2.68224 19.2634 -4.8768
        CHANNELS 3 Zrotation Xrotation Yrotation
        JOINT lShldr
        {
          OFFSET 8.77824 -1.95073 1.46304
          CHANNELS 3 Zrotation Xrotation Yrotation
          JOINT lForeArm
          {
            OFFSET 28.1742 -1.7115 0.48768
            CHANNELS 3 Zrotation Xrotation Yrotation
            JOINT lHand
            {
              OFFSET 22.5879 0.773209 7.07136
              CHANNELS 3 Zrotation Xrotation Yrotation
              JOINT lThumb1
              {
                OFFSET 1.2192 -0.487915 3.41376
                CHANNELS 3 Zrotation Xrotation Yrotation
                JOINT lThumb2
                {
                  OFFSET 3.37035 -0.52449 3.41376
                  CHANNELS 3 Zrotation Xrotation Yrotation
                  End Site
                  {
                    OFFSET 1.78271 -1.18214 1.43049
                  }
                }
              }
              JOINT lIndex1
              {
                OFFSET 7.75947 0.938293 5.60832
                CHANNELS 3 Zrotation Xrotation Yrotation
                JOINT lIndex2
                {
                  OFFSET 2.54057 -0.884171 1.56538
                  CHANNELS 3 Zrotation Xrotation Yrotation
                  End Site
                  {
                    OFFSET 1.62519 -0.234802 1.16502
                  }
                }
              }
              JOINT lMid1
              {
                OFFSET 8.24714 1.18213 3.41376
                CHANNELS 3 Zrotation Xrotation Yrotation
                JOINT lMid2
                {
                  OFFSET 3.10165 -0.590103 1.0647
                  CHANNELS 3 Zrotation Xrotation Yrotation
                  End Site
                  {
                    OFFSET 2.48547 -0.328903 0.83742
                  }
                }
              }
              JOINT lRing1
              {
                OFFSET 8.82822 0.546677 1.51678
                CHANNELS 3 Zrotation Xrotation Yrotation
                JOINT lRing2
                {
                  OFFSET 2.60934 -0.819778 -0.0198488
                  CHANNELS 3 Zrotation Xrotation Yrotation
                  End Site
                  {
                    OFFSET 2.33842 -0.294052 0.168128
                  }
                }
              }
              JOINT lPinky1
              {
                OFFSET 8.27202 -0.0477905 -0.4584
                CHANNELS 3 Zrotation Xrotation Yrotation
                JOINT lPinky2
                {
                  OFFSET 1.82734 -0.647385 -0.700984
                  CHANNELS 3 Zrotation Xrotation Yrotation
                  End Site
                  {
                    OFFSET 1.69225 -0.51767 -0.607171
                  }
                }
              }
            }
          }
        }
      }
    }
  }
  JOINT rButtock
  {
    OFFSET -8.77824 4.35084 1.2192
    CHANNELS 3 Zrotation Xrotation Yrotation
    JOINT rThigh
    {
      OFFSET 0 -1.70687 -2.19456
      CHANNELS 3 Zrotation Xrotation Yrotation
      JOINT rShin
      {
        OFFSET 0 -36.8199 0.73152
        CHANNELS 3 Zrotation Xrotation Yrotation
        JOINT rFoot
        {
          OFFSET 0.73152 -45.1104 -5.12064
          CHANNELS 3 Zrotation Xrotation Yrotation
          End Site
          {
            OFFSET -1.1221 -3.69964 12.103
          }
        }
      }
    }
  }
  JOINT lButtock
  {
    OFFSET 8.77824 4.35084 1.2192
    CHANNELS 3 Zrotation Xrotation Yrotation
    JOINT lThigh
    {
      OFFSET 0 -1.70687 -2.19456
      CHANNELS 3 Zrotation Xrotation Yrotation
      JOINT lShin
      {
        OFFSET 0 -36.8199 0.73152
        CHANNELS 3 Zrotation Xrotation Yrotation
        JOINT lFoot
        {
          OFFSET -0.73152 -45.1104 -5.12064
          CHANNELS 3 Zrotation Xrotation Yrotation
          End Site
          {
            OFFSET 1.1221 -3.69964 12.103
          }
        }
      }
    }
  }
}
MOTION
Frames:	4
Frame Time:	0.00833333
-130.212 85.2982 0.17689 0.0 0.0 0.0 0.984351 -0.00436096 0.0272513 0.271544 -0.00455354 0.0470443 2.85795e-15 -7.95139e-16 1.2424e-16 8.61297e-15 3.18055e-15 3.57191e-16 -0.0 0.0 0.0 -0.0 0.0 0.0 1.48964e-15 5.82377e-18 2.98177e-16 3.1383e-14 3.29237e-16 1.78906e-15 5.31948e-13 -1.54654e-13 -1.59028e-14 6.05097e-12 1.80223e-13 2.54444e-13 1.42786e-11 5.15585e-14 5.34333e-13 2.46437e-11 8.90555e-14 9.15205e-13 1.42851e-11 5.4467e-14 5.31153e-13 7.73091 5.47488 0.417314 1.42792e-11 5.20816e-14 5.31153e-13 2.90554 0.965183 0.102902 1.42881e-11 5.1684e-14 5.36719e-13 10.2786 0.731801 0.0259123 1.42747e-11 5.36719e-14 5.43875e-13 2.22167 -0.733487 -0.20892 1.29343e-15 6.21202e-18 -1.98785e-16 2.90672e-14 4.22417e-16 5.96354e-16 5.25686e-13 1.62009e-13 4.13472e-14 6.05711e-12 -1.43796e-13 2.25819e-13 1.4284e-11 3.56526e-14 5.31153e-13 2.46771e-11 6.04305e-14 9.39059e-13 1.42811e-11 3.57812e-14 5.50236e-13 -7.73091 5.47488 -0.417314 1.42847e-11 3.52843e-14 5.31153e-13 -2.90554 0.965183 -0.102902 1.42793e-11 3.58806e-14 5.37514e-13 -10.2786 0.731801 -0.0259123 1.42902e-11 3.81667e-14 5.27972e-13 -2.22167 -0.733487 0.20892 -2.03217e-16 0.0 -3.88251e-19 1.24889 -5.45296 -0.109166 6.87807e-05 4.32232 0.0238761 -0.510741 1.12952 0.081243 2.03217e-16 0.0 3.88251e-19 0.249732 -1.91924 0.0129221 0.0092832 -2.07855 0.0766803 0.496188 3.99654 -0.137935
-131.332 82.5403 -6.83858 176.582 35.5168 -146.903 0.561338 -12.4108 0.845653 0.701074 4.75663 0.440877 3.59285 0.561384 3.95433 -5.69232 -0.422182 7.30339 -0.0 0.0 0.0 -0.0 0.0 0.0 1.07649e-14 4.01595e-14 7.48886e-14 21.4833 8.44296 -0.616641 -7.39523 -4.38024 10.2312 0.0321218 -4.00076 -0.55742 -5.34558e-10 4.89984e-10 1.06738e-10 -9.24623e-10 8.45451e-10 1.78901e-10 -5.34553e-10 4.89987e-10 1.06732e-10 7.73091 5.47488 0.417314 -5.34558e-10 4.89984e-10 1.06739e-10 2.90554 0.965183 0.102902 -5.34549e-10 4.89984e-10 1.06741e-10 10.2786 0.731801 0.0259123 -5.34562e-10 4.89986e-10 1.06746e-10 2.22167 -0.733487 -0.20892 1.06094e-14 4.01582e-14 7.44709e-14 -22.1652 6.27775 -2.20936 2.76746 -1.06247 -4.51133 -0.00097027 0.710529 -0.0998327 -8.80991e-10 -3.4385e-10 -1.99023e-10 -1.52382e-09 -5.91493e-10 -3.41e-10 -8.80995e-10 -3.43848e-10 -1.99009e-10 -7.73091 5.47488 -0.417314 -8.8099e-10 -3.4385e-10 -1.99024e-10 -2.90554 0.965183 -0.102902 -8.80995e-10 -3.4385e-10 -1.9902e-10 -10.2786 0.731801 -0.0259123 -8.80983e-10 -3.43848e-10 -1.99031e-10 -2.22167 -0.733487 0.20892 -2.03217e-16 0.0 -3.88251e-19 2.02235 -16.4729 -13.8055 0.000674533 5.11245 0.0363914 -0.588011 2.41684 5.09762 2.03217e-16 0.0 3.88251e-19 2.13335 -12.5479 0.133977 -0.0539747 4.04565 -0.182734 1.81261 -2.62029 9.41881
-130.977 82.6401 -6.62694 177.422 35.2435 -146.6 0.438154 -25.5518 1.84495 1.10061 9.79744 0.873641 7.32297 1.14908 8.1382 -11.6288 -0.846046 15.0294 -0.0 0.0 0.0 -0.0 0.0 0.0 1.52036e-14 7.75303e-14 1.61603e-13 44.41 17.3457 -1.32098 -13.5562 -8.56637 21.2617 -0.0198501 -8.27891 -1.16288 -1.1134e-09 1.01888e-09 2.32541e-10 -1.92593e-09 1.75819e-09 3.9039e-10 -1.11339e-09 1.01888e-09 2.32532e-10 7.73091 5.47488 0.417314 -1.1134e-09 1.01887e-09 2.32545e-10 2.90554 0.965183 0.102902 -1.11339e-09 1.01888e-09 2.32543e-10 10.2786 0.731801 0.0259123 -1.1134e-09 1.01888e-09 2.32547e-10 2.22167 -0.733487 -0.20892 1.50904e-14 7.7527e-14 1.61267e-13 -45.0492 12.832 -4.63485 5.50115 -2.15776 -9.26829 0.000749962 1.48075 -0.208107 -1.85348e-09 -6.79707e-10 -4.00931e-10 -3.20595e-09 -1.16887e-09 -6.86722e-10 -1.85349e-09 -6.79705e-10 -4.00921e-10 -7.73091 5.47488 -0.417314 -1.85348e-09 -6.79706e-10 -4.00933e-10 -2.90554 0.965183 -0.102902 -1.85349e-09 -6.79707e-10 -4.00931e-10 -10.2786 0.731801 -0.0259123 -1.85347e-09 -6.79707e-10 -4.00944e-10 -2.22167 -0.733487 0.20892 -2.03217e-16 0.0 -3.88251e-19 -3.26835 -25.6702 -30.3609 0.000918767 5.94923 0.0495446 -0.917386 3.75295 10.4072 2.03217e-16 0.0 3.88251e-19 4.08028 -23.7958 0.257991 -0.0594581 10.4921 -0.46327 5.58269 -9.12673 19.7637
-130.555 82.6773 -6.38678 178.35 35.0714 -146.36 1.00998 -37.1886 3.04222 1.35832 14.2761 1.263 10.5479 1.65211 11.8674 -16.7627 -1.18467 21.9145 -0.0 0.0 0.0 -0.0 0.0 0.0 2.93155e-14 1.20467e-13 2.2407e-13 65.0441 25.3165 -2.02436 -17.6652 -11.4651 31.2954 -0.141573 -11.9977 -1.70545 -1.63223e-09 1.46985e-09 3.19147e-10 -2.82316e-09 2.53617e-09 5.34873e-10 -1.63223e-09 1.46985e-09 3.19135e-10 7.73091 5.47488 0.417314 -1.63223e-09 1.46985e-09 3.19154e-10 2.90554 0.965183 0.102902 -1.63222e-09 1.46985e-09 3.19148e-10 10.2786 0.731801 0.0259123 -1.63224e-09 1.46985e-09 3.19151e-10 2.22167 -0.733487 -0.20892 2.92413e-14 1.20462e-13 2.2381e-13 -64.978 18.718 -6.958 7.805 -3.10848 -13.552 0.00452173 2.13156 -0.299682 -2.67154e-09 -1.03162e-09 -5.98132e-10 -4.62081e-09 -1.7746e-09 -1.02488e-09 -2.67155e-09 -1.03162e-09 -5.98127e-10 -7.73091 5.47488 -0.417314 -2.67154e-09 -1.03162e-09 -5.98135e-10 -2.90554 0.965183 -0.102902 -2.67154e-09 -1.03162e-09 -5.98135e-10 -10.2786 0.731801 -0.0259123 -2.67153e-09 -1.03162e-09 -5.98149e-10 -2.22167 -0.733487 0.20892 -2.03217e-16 0.0 -3.88251e-19 -12.4836 -29.6821 -47.0245 0.000843197 6.69272 0.061543 -1.4115 4.8461 15.1723 2.03217e-16 0.0 3.88251e-19 6.05952 -33.8044 0.441067 -0.00896646 16.2929 -0.729388 10.933 -13.9845 29.4565
